<?xml version="1.0" encoding="UTF-8"?>
<svg width="500px" height="500px" viewBox="0 0 500 500" xmlns="http://www.w3.org/2000/svg" xmlns:xlink="http://www.w3.org/1999/xlink" version="1.1">
 <!-- Generated by Pixelmator Pro 1.5.1 -->
 <g id="New-Group">
  <path id="Path" d="M169.012 339.004 C164.766 301.035 131.598 272.992 93.449 275.117 55.301 277.242 25.457 308.797 25.457 347.004 25.457 385.215 55.301 416.766 93.449 418.895 131.598 421.02 164.766 392.977 169.012 355.004 169.652 349.692 169.652 344.32 169.012 339.004 Z M97.492 387.004 C75.398 387.004 57.492 369.098 57.492 347.004 57.492 324.914 75.398 307.004 97.492 307.004 119.582 307.004 137.492 324.914 137.492 347.004 137.492 369.098 119.582 387.004 97.492 387.004 Z M97.492 387.004" fill="#000000" fill-opacity="1" stroke="none"/>
  <path id="Path-1" d="M97.492 307.004 C75.398 307.004 57.492 324.914 57.492 347.004 57.492 369.098 75.398 387.004 97.492 387.004 119.582 387.004 137.492 369.098 137.492 347.004 137.492 324.914 119.582 307.004 97.492 307.004 Z M97.492 371.004 C84.234 371.004 73.492 360.262 73.492 347.004 73.492 333.75 84.234 323.004 97.492 323.004 110.746 323.004 121.492 333.75 121.492 347.004 121.449 360.242 110.73 370.965 97.492 371.004 Z M97.492 371.004" fill="#f9c60b" fill-opacity="1" stroke="none"/>
  <path id="Path-2" d="M121.492 347.004 C121.492 360.262 110.746 371.004 97.492 371.004 84.234 371.004 73.492 360.262 73.492 347.004 73.492 333.75 84.234 323.004 97.492 323.004 110.746 323.004 121.492 333.75 121.492 347.004 Z M121.492 347.004" fill="#ad7214" fill-opacity="1" stroke="none"/>
  <path id="Path-3" d="M457.012 339.004 C456.125 330.649 453.738 322.52 449.969 315.004 435.75 286.442 404.426 270.641 373.004 276.188 341.578 281.731 317.555 307.297 313.969 339.004 313.332 344.32 313.332 349.692 313.969 355.004 317.555 386.711 341.578 412.277 373.004 417.824 404.426 423.367 435.75 407.57 449.969 379.004 452.504 373.914 454.437 368.543 455.73 363.004 457.512 355.137 457.945 347.02 457.012 339.004 Z M385.492 387.004 C363.398 387.004 345.492 369.098 345.492 347.004 345.492 324.914 363.398 307.004 385.492 307.004 407.582 307.004 425.492 324.914 425.492 347.004 425.492 369.098 407.582 387.004 385.492 387.004 Z M385.492 387.004" fill="#000000" fill-opacity="1" stroke="none"/>
  <path id="Path-4" d="M385.492 307.004 C363.398 307.004 345.492 324.914 345.492 347.004 345.492 369.098 363.398 387.004 385.492 387.004 407.582 387.004 425.492 369.098 425.492 347.004 425.492 324.914 407.582 307.004 385.492 307.004 Z M385.492 371.004 C372.234 371.004 361.492 360.262 361.492 347.004 361.492 333.75 372.234 323.004 385.492 323.004 398.746 323.004 409.492 333.75 409.492 347.004 409.449 360.242 398.73 370.965 385.492 371.004 Z M385.492 371.004" fill="#f9c60b" fill-opacity="1" stroke="none"/>
  <path id="Path-5" d="M409.492 347.004 C409.492 360.262 398.746 371.004 385.492 371.004 372.234 371.004 361.492 360.262 361.492 347.004 361.492 333.75 372.234 323.004 385.492 323.004 398.746 323.004 409.492 333.75 409.492 347.004 Z M409.492 347.004" fill="#ad7214" fill-opacity="1" stroke="none"/>
  <path id="Path-6" d="M313.492 347.004 C313.488 349.68 313.648 352.351 313.969 355.004 L169.012 355.004 C169.652 349.691 169.652 344.32 169.012 339.004 L313.969 339.004 C313.648 341.66 313.488 344.332 313.492 347.004 Z M313.492 347.004" fill="#ad7214" fill-opacity="1" stroke="none"/>
  <path id="Path-7" d="M401.492 83.004 L321.492 83.004 C317.812 83.008 314.613 85.516 313.73 89.086 L305.25 123.004 33.492 123.004 C29.812 123.008 26.613 125.516 25.73 129.086 L9.73 193.086 C8.934 196.344 10.242 199.754 13.012 201.645 L189.012 321.645 C190.336 322.535 191.894 323.008 193.492 323.004 L265.492 323.004 C269.176 323.027 272.391 320.508 273.25 316.926 L327.73 99.004 401.492 99.004 C405.91 99.004 409.492 95.422 409.492 91.004 409.492 86.586 405.91 83.004 401.492 83.004 Z M73.25 165.086 L66.691 189.645 C65.715 193.129 62.547 195.543 58.93 195.566 58.23 195.559 57.535 195.48 56.851 195.324 52.59 194.145 50.063 189.766 51.172 185.484 L57.73 160.926 C58.879 156.641 63.285 154.098 67.57 155.246 71.855 156.395 74.398 160.801 73.25 165.086 Z M121.25 165.086 L107.57 216.363 C106.625 219.871 103.441 222.301 99.812 222.285 99.109 222.281 98.414 222.199 97.73 222.047 93.469 220.863 90.941 216.484 92.051 212.203 L105.73 160.926 C106.879 156.641 111.285 154.098 115.57 155.246 119.855 156.395 122.398 160.801 121.25 165.086 Z M169.25 165.086 L148.449 243.004 C147.508 246.512 144.32 248.941 140.691 248.926 139.992 248.926 139.293 248.844 138.609 248.684 134.351 247.504 131.824 243.125 132.93 238.844 L153.73 160.926 C154.879 156.641 159.285 154.098 163.57 155.246 167.855 156.395 170.398 160.801 169.25 165.086 Z M217.25 165.086 L189.332 269.645 C188.351 273.129 185.188 275.543 181.57 275.566 180.871 275.563 180.172 275.484 179.492 275.324 175.23 274.145 172.703 269.766 173.813 265.484 L201.73 160.926 C202.879 156.641 207.285 154.098 211.57 155.246 215.855 156.395 218.398 160.801 217.25 165.086 Z M225.492 291.004 C224.789 291 224.094 290.918 223.41 290.766 219.148 289.582 216.621 285.207 217.73 280.926 L249.73 160.926 C250.879 156.641 255.285 154.098 259.57 155.246 263.855 156.395 266.398 160.801 265.25 165.086 L233.25 285.086 C232.309 288.59 229.121 291.019 225.492 291.004 Z M225.492 291.004" fill="#f9c60b" fill-opacity="1" stroke="none"/>
  <path id="Path-8" d="M402.93 131.004 L369.492 131.004 369.492 179.004 409.332 179.004 Z M402.93 131.004" fill="#f9c60b" fill-opacity="1" stroke="none"/>
  <path id="Path-9" d="M409.332 179.004 L369.492 179.004 369.492 131.004 402.93 131.004 Z M409.332 179.004" fill="#9fe0f6" fill-opacity="1" stroke="none"/>
  <g id="group">
   <path id="Path-10" d="M265.25 165.086 L233.25 285.086 C232.308 288.59 229.121 291.019 225.492 291.004 224.789 291 224.094 290.918 223.41 290.766 219.148 289.582 216.621 285.207 217.73 280.926 L249.73 160.926 C250.879 156.641 255.285 154.098 259.57 155.246 263.855 156.394 266.398 160.801 265.25 165.086 Z M265.25 165.086" fill="#faab1c" fill-opacity="1" stroke="none"/>
   <path id="Path-11" d="M217.25 165.086 L189.332 269.645 C188.351 273.129 185.188 275.543 181.57 275.567 180.871 275.563 180.172 275.484 179.492 275.324 175.23 274.145 172.703 269.766 173.813 265.484 L201.73 160.926 C202.879 156.641 207.285 154.098 211.57 155.246 215.855 156.395 218.398 160.801 217.25 165.086 Z M217.25 165.086" fill="#faab1c" fill-opacity="1" stroke="none"/>
   <path id="Path-12" d="M169.25 165.086 L148.449 243.004 C147.508 246.512 144.32 248.942 140.691 248.926 139.992 248.926 139.293 248.844 138.609 248.684 134.351 247.504 131.824 243.125 132.93 238.844 L153.73 160.926 C154.879 156.641 159.285 154.098 163.57 155.246 167.855 156.395 170.398 160.801 169.25 165.086 Z M169.25 165.086" fill="#faab1c" fill-opacity="1" stroke="none"/>
   <path id="Path-13" d="M121.25 165.086 L107.57 216.363 C106.625 219.871 103.441 222.301 99.812 222.285 99.109 222.281 98.414 222.199 97.73 222.047 93.469 220.863 90.941 216.484 92.051 212.203 L105.73 160.926 C106.879 156.641 111.285 154.098 115.57 155.246 119.855 156.395 122.398 160.801 121.25 165.086 Z M121.25 165.086" fill="#faab1c" fill-opacity="1" stroke="none"/>
   <path id="Path-14" d="M73.25 165.086 L66.691 189.645 C65.715 193.129 62.547 195.543 58.93 195.567 58.23 195.559 57.535 195.481 56.851 195.324 52.59 194.145 50.062 189.766 51.172 185.484 L57.73 160.926 C58.879 156.641 63.285 154.098 67.57 155.246 71.855 156.395 74.398 160.801 73.25 165.086 Z M73.25 165.086" fill="#faab1c" fill-opacity="1" stroke="none"/>
  </g>
  <path id="Path-15" d="M457.492 195.004 L432.051 195.004 417.332 121.406 C416.57 117.68 413.293 115.004 409.492 115.004 L345.492 115.004 C341.805 114.984 338.594 117.504 337.73 121.086 L283.25 339.004 313.969 339.004 C317.555 307.297 341.578 281.73 373.004 276.188 404.426 270.641 435.75 286.441 449.969 315.004 453.738 322.52 456.125 330.648 457.012 339.004 L488.129 339.004 C489.035 336.461 489.496 333.785 489.492 331.086 L489.492 227.004 C489.793 218.43 486.52 210.113 480.453 204.043 474.383 197.977 466.066 194.703 457.492 195.004 Z M369.492 131.004 L402.93 131.004 409.332 179.004 369.492 179.004 Z M473.492 302.684 L422.531 259.004 319.73 259.004 319.812 258.844 323.73 243.004 425.492 243.004 C427.394 243.02 429.234 243.699 430.691 244.926 L473.492 281.645 Z M473.492 302.684" fill="#f9c60b" fill-opacity="1" stroke="none"/>
  <path id="Path-16" d="M473.492 281.645 L473.492 302.684 422.531 259.004 319.73 259.004 319.812 258.844 323.73 243.004 425.492 243.004 C427.394 243.02 429.234 243.699 430.691 244.926 Z M473.492 281.645" fill="#faab1c" fill-opacity="1" stroke="none"/>
  <path id="Path-17" d="M488.129 339.004 C485.742 345.848 480.348 351.215 473.492 353.566 470.965 354.535 468.277 355.023 465.57 355.004 L457.012 355.004 C457.652 349.691 457.652 344.32 457.012 339.004 Z M488.129 339.004" fill="#ad7214" fill-opacity="1" stroke="none"/>
 </g>
</svg>
